<svg xmlns="http://www.w3.org/2000/svg" xmlns:xlink="http://www.w3.org/1999/xlink" viewBox="0 0 152.36 82.83"><defs><style>.cls-1{fill:url(#linear-gradient);}.cls-2{fill:url(#linear-gradient-2);}.cls-3{fill:url(#linear-gradient-3);}</style><linearGradient id="linear-gradient" x1="5.13" y1="49.38" x2="150.1" y2="49.38" gradientUnits="userSpaceOnUse"><stop offset="0" stop-color="#f23514"/><stop offset="0.49" stop-color="#f87458"/><stop offset="1" stop-color="#f6e813"/></linearGradient><linearGradient id="linear-gradient-2" x1="5.13" y1="49.38" x2="150.1" y2="49.38" xlink:href="#linear-gradient"/><linearGradient id="linear-gradient-3" x1="5.13" y1="36.96" x2="150.1" y2="36.96" xlink:href="#linear-gradient"/></defs><g id="Layer_2" data-name="Layer 2"><g id="OBJECTS"><path class="cls-1" d="M73.86,15.94A33.45,33.45,0,1,0,107.3,49.38,33.44,33.44,0,0,0,73.86,15.94ZM59.06,74.76A29.39,29.39,0,0,1,49,65l10-6.24A17.58,17.58,0,0,0,65,64.61Zm14.8-11.83A13.55,13.55,0,1,1,87.4,49.38,13.55,13.55,0,0,1,73.86,62.93ZM89,40.36a17.87,17.87,0,0,0-6.26-6.2L88.66,24A29.54,29.54,0,0,1,99.1,34.35Z"/><path class="cls-2" d="M73.86,44.58a4.81,4.81,0,1,0,4.8,4.8A4.8,4.8,0,0,0,73.86,44.58Z"/><path class="cls-3" d="M151.06,54.51h-8.67a1.3,1.3,0,0,0-1.25.92l-1.21,4L136.72,46a1.3,1.3,0,0,0-1.27-1h0a1.3,1.3,0,0,0-1.26,1L131.8,57.11h-4.1a157.54,157.54,0,0,0-1.63-16.88l-5.67-1.74C115.82,17.25,95.86,0,73.76,0S31.67,17.28,27.11,38.55l-5.47,1.68A152.06,152.06,0,0,0,20,59.11H17l-3.5-11.89a1.28,1.28,0,0,0-1.19-.93,1.25,1.25,0,0,0-1.27.82l-3.7,9.4h-6a1.3,1.3,0,0,0,0,2.6H8.24a1.29,1.29,0,0,0,1.2-.82l2.65-6.7,2.7,9.19a1.3,1.3,0,0,0,1.25.93H20c.1,3.87.56,7.34,1.65,9.42,0,0,13.48,3.36,19.62,2.71,0,0-13.39-13-7.8-37.14a41.76,41.76,0,0,1,82.06,10.93h.09c.21,17.12-9.16,26.21-9.16,26.21,6.14.65,19.62-2.71,19.62-2.71,1.27-2.44,1.68-6.77,1.67-11.42h5.11a1.3,1.3,0,0,0,1.27-1l1.4-6.52,3,12.62a1.31,1.31,0,0,0,1.23,1h0a1.3,1.3,0,0,0,1.24-.93l2.32-7.74h7.71a1.3,1.3,0,1,0,0-2.6Z"/></g></g></svg>